<?xml version="1.0" encoding="UTF-8" standalone="no"?>
<!-- Created with Inkscape (http://www.inkscape.org/) -->

<svg
   width="100mm"
   height="100mm"
   viewBox="0 0 100 100"
   version="1.1"
   id="svg5"
   inkscape:version="1.1.2 (0a00cf5339, 2022-02-04, custom)"
   sodipodi:docname="key_d_path.svg"
   xmlns:inkscape="http://www.inkscape.org/namespaces/inkscape"
   xmlns:sodipodi="http://sodipodi.sourceforge.net/DTD/sodipodi-0.dtd"
   xmlns="http://www.w3.org/2000/svg"
   xmlns:svg="http://www.w3.org/2000/svg">
  <sodipodi:namedview
     id="namedview7"
     pagecolor="#ffffff"
     bordercolor="#666666"
     borderopacity="1.0"
     inkscape:pageshadow="2"
     inkscape:pageopacity="0.0"
     inkscape:pagecheckerboard="0"
     inkscape:document-units="mm"
     showgrid="false"
     width="10mm"
     inkscape:zoom="2.2449496"
     inkscape:cx="228.2902"
     inkscape:cy="202.67716"
     inkscape:window-width="2560"
     inkscape:window-height="1365"
     inkscape:window-x="0"
     inkscape:window-y="0"
     inkscape:window-maximized="1"
     inkscape:current-layer="layer1" />
  <defs
     id="defs2">
    <rect
       x="3.5013751"
       y="3.5013751"
       width="370.95"
       height="370.95"
       id="rect7217" />
  </defs>
  <g
     inkscape:label="Layer 1"
     inkscape:groupmode="layer"
     id="layer1">
    <path
       id="rect846"
       style="fill:#9fc3e7;fill-opacity:0.577362;stroke-width:0.490738"
       d="M 68.810547 3.5019531 C 32.629314 3.5019531 3.5019531 32.629314 3.5019531 68.810547 L 3.5019531 309.14258 C 3.5019531 345.32381 32.629314 374.45117 68.810547 374.45117 L 309.14258 374.45117 C 345.32381 374.45117 374.45117 345.32381 374.45117 309.14258 L 374.45117 68.810547 C 374.45117 32.629314 345.32381 3.5019531 309.14258 3.5019531 L 68.810547 3.5019531 z M 98.416016 83.658203 L 182.25586 83.658203 C 203.58919 83.658203 222.5768 88.137656 239.2168 97.097656 C 255.8568 105.95099 268.92268 118.75138 278.41602 135.49805 C 287.90935 152.13805 292.65625 172.19154 292.65625 195.6582 C 292.65625 219.12487 287.90935 239.23185 278.41602 255.97852 C 268.92268 272.61852 255.8568 285.41891 239.2168 294.37891 C 222.5768 303.23224 203.58919 307.6582 182.25586 307.6582 L 98.416016 307.6582 L 98.416016 83.658203 z M 139.37695 120.13867 L 139.37695 271.17773 L 182.25586 271.17773 C 196.76253 271.17773 208.86951 268.13859 218.57617 262.05859 C 228.28284 255.97859 235.58943 247.28518 240.49609 235.97852 C 245.40276 224.67185 247.85742 211.23154 247.85742 195.6582 C 247.85742 180.08487 245.40276 166.64456 240.49609 155.33789 C 235.58943 144.03122 228.28284 135.33781 218.57617 129.25781 C 208.86951 123.17781 196.76253 120.13867 182.25586 120.13867 L 139.37695 120.13867 z "
       transform="scale(0.26458333)" />
  </g>
</svg>
