<?xml version="1.0" encoding="UTF-8" standalone="no"?>
<!-- Created with Inkscape (http://www.inkscape.org/) -->

<svg
   width="100mm"
   height="100mm"
   viewBox="0 0 100 100"
   version="1.1"
   id="svg5"
   inkscape:version="1.1.2 (0a00cf5339, 2022-02-04, custom)"
   sodipodi:docname="key_w_path.svg"
   xmlns:inkscape="http://www.inkscape.org/namespaces/inkscape"
   xmlns:sodipodi="http://sodipodi.sourceforge.net/DTD/sodipodi-0.dtd"
   xmlns="http://www.w3.org/2000/svg"
   xmlns:svg="http://www.w3.org/2000/svg">
  <sodipodi:namedview
     id="namedview7"
     pagecolor="#ffffff"
     bordercolor="#666666"
     borderopacity="1.0"
     inkscape:pageshadow="2"
     inkscape:pageopacity="0.0"
     inkscape:pagecheckerboard="0"
     inkscape:document-units="mm"
     showgrid="false"
     width="10mm"
     inkscape:zoom="2.2449495"
     inkscape:cx="176.61867"
     inkscape:cy="208.46794"
     inkscape:window-width="2560"
     inkscape:window-height="1365"
     inkscape:window-x="0"
     inkscape:window-y="0"
     inkscape:window-maximized="1"
     inkscape:current-layer="layer1" />
  <defs
     id="defs2">
    <rect
       x="3.5013751"
       y="3.5013751"
       width="370.95"
       height="370.95"
       id="rect7217" />
  </defs>
  <g
     inkscape:label="Layer 1"
     inkscape:groupmode="layer"
     id="layer1">
    <path
       id="rect846"
       style="fill:#9fc3e7;fill-opacity:0.577362;stroke-width:0.490738"
       d="M 68.810547 3.5019531 C 32.629314 3.5019531 3.5019531 32.629314 3.5019531 68.810547 L 3.5019531 309.14258 C 3.5019531 345.32381 32.629314 374.45117 68.810547 374.45117 L 309.14062 374.45117 C 345.32186 374.45117 374.45117 345.32381 374.45117 309.14258 L 374.45117 68.810547 C 374.45117 32.629314 345.32186 3.5019531 309.14062 3.5019531 L 68.810547 3.5019531 z M 34.255859 76.181641 L 81.9375 76.181641 L 111.05664 200.98242 C 112.33664 205.88909 113.72346 212.0763 115.2168 219.54297 C 116.71013 227.00964 118.09695 234.47474 119.37695 241.94141 C 120.65695 249.40807 121.61586 255.70227 122.25586 260.82227 C 122.89586 255.48893 123.85672 249.19474 125.13672 241.94141 C 126.41672 234.47474 127.69656 227.32862 128.97656 220.50195 C 130.4699 213.46195 131.74974 208.02164 132.81641 204.18164 L 166.09766 76.181641 L 211.85742 76.181641 L 245.13672 204.18164 C 246.20339 207.80831 247.37625 213.14164 248.65625 220.18164 C 250.14958 227.22164 251.53641 234.47474 252.81641 241.94141 C 254.09641 249.40807 255.05727 255.70227 255.69727 260.82227 C 256.33727 255.48893 257.29617 249.19474 258.57617 241.94141 C 259.85617 234.47474 261.24299 227.00964 262.73633 219.54297 C 264.44299 212.0763 265.82982 205.88909 266.89648 200.98242 L 296.01758 76.181641 L 343.69727 76.181641 L 285.45703 304.66211 L 230.41602 304.66211 L 199.37695 184.66211 C 198.73695 182.31544 197.88307 178.7949 196.81641 174.10156 C 195.96307 169.40823 194.89719 164.28885 193.61719 158.74219 C 192.55052 153.19552 191.58966 147.96917 190.73633 143.0625 C 189.88299 137.9425 189.24307 133.99599 188.81641 131.22266 C 188.60307 133.99599 187.96315 137.9425 186.89648 143.0625 C 186.04315 147.96917 185.08424 153.19552 184.01758 158.74219 C 182.95091 164.07552 181.88307 169.1949 180.81641 174.10156 C 179.74974 178.7949 178.89586 182.42242 178.25586 184.98242 L 147.53711 304.66211 L 92.496094 304.66211 L 34.255859 76.181641 z "
       transform="scale(0.26458333)" />
    <g
       aria-label="W"
       transform="matrix(0.26458333,0,0,0.26458333,0,2.6458334)"
       id="text7215"
       style="font-size:320px;line-height:1.25;white-space:pre;shape-inside:url(#rect7217)" />
  </g>
</svg>
