<?xml version="1.0" encoding="UTF-8" standalone="no"?>
<!-- Created with Inkscape (http://www.inkscape.org/) -->

<svg
   width="100mm"
   height="100mm"
   viewBox="0 0 100 100"
   version="1.1"
   id="svg5"
   inkscape:version="1.1.2 (0a00cf5339, 2022-02-04, custom)"
   sodipodi:docname="key_a_path.svg"
   xmlns:inkscape="http://www.inkscape.org/namespaces/inkscape"
   xmlns:sodipodi="http://sodipodi.sourceforge.net/DTD/sodipodi-0.dtd"
   xmlns="http://www.w3.org/2000/svg"
   xmlns:svg="http://www.w3.org/2000/svg">
  <sodipodi:namedview
     id="namedview7"
     pagecolor="#ffffff"
     bordercolor="#666666"
     borderopacity="1.0"
     inkscape:pageshadow="2"
     inkscape:pageopacity="0.0"
     inkscape:pagecheckerboard="0"
     inkscape:document-units="mm"
     showgrid="false"
     width="10mm"
     inkscape:zoom="2.2449496"
     inkscape:cx="228.2902"
     inkscape:cy="202.67716"
     inkscape:window-width="2560"
     inkscape:window-height="1365"
     inkscape:window-x="0"
     inkscape:window-y="0"
     inkscape:window-maximized="1"
     inkscape:current-layer="layer1" />
  <defs
     id="defs2">
    <rect
       x="3.5013751"
       y="3.5013751"
       width="370.95"
       height="370.95"
       id="rect7217" />
  </defs>
  <g
     inkscape:label="Layer 1"
     inkscape:groupmode="layer"
     id="layer1">
    <path
       id="rect846"
       style="fill:#9fc3e7;fill-opacity:0.577362;stroke-width:0.490738"
       d="M 68.810547 3.5019531 C 32.629314 3.5019531 3.5019531 32.629314 3.5019531 68.810547 L 3.5019531 309.14258 C 3.5019531 345.32381 32.629314 374.45117 68.810547 374.45117 L 309.14258 374.45117 C 345.32381 374.45117 374.45117 345.32381 374.45117 309.14258 L 374.45117 68.810547 C 374.45117 32.629314 345.32381 3.5019531 309.14258 3.5019531 L 68.810547 3.5019531 z M 169.61719 83.658203 L 208.33594 83.658203 L 288.01562 307.6582 L 248.33594 307.6582 L 229.67578 254.53906 L 148.27734 254.53906 L 129.61719 307.6582 L 89.9375 307.6582 L 169.61719 83.658203 z M 188.97656 138.68555 L 160.86914 218.69922 L 217.08398 218.69922 L 188.97656 138.68555 z "
       transform="scale(0.26458333)" />
  </g>
</svg>
