<?xml version="1.0" encoding="UTF-8" standalone="no"?>
<!-- Created with Inkscape (http://www.inkscape.org/) -->

<svg
   width="100mm"
   height="100mm"
   viewBox="0 0 100 100"
   version="1.1"
   id="svg5"
   inkscape:version="1.1.2 (0a00cf5339, 2022-02-04, custom)"
   sodipodi:docname="key_s_path.svg"
   xmlns:inkscape="http://www.inkscape.org/namespaces/inkscape"
   xmlns:sodipodi="http://sodipodi.sourceforge.net/DTD/sodipodi-0.dtd"
   xmlns="http://www.w3.org/2000/svg"
   xmlns:svg="http://www.w3.org/2000/svg">
  <sodipodi:namedview
     id="namedview7"
     pagecolor="#ffffff"
     bordercolor="#666666"
     borderopacity="1.0"
     inkscape:pageshadow="2"
     inkscape:pageopacity="0.0"
     inkscape:pagecheckerboard="0"
     inkscape:document-units="mm"
     showgrid="false"
     width="10mm"
     inkscape:zoom="2.2449496"
     inkscape:cx="228.2902"
     inkscape:cy="202.67716"
     inkscape:window-width="2560"
     inkscape:window-height="1365"
     inkscape:window-x="0"
     inkscape:window-y="0"
     inkscape:window-maximized="1"
     inkscape:current-layer="layer1" />
  <defs
     id="defs2">
    <rect
       x="3.5013751"
       y="3.5013751"
       width="370.95"
       height="370.95"
       id="rect7217" />
  </defs>
  <g
     inkscape:label="Layer 1"
     inkscape:groupmode="layer"
     id="layer1">
    <path
       id="rect846"
       style="fill:#9fc3e7;fill-opacity:0.577362;stroke-width:0.490738"
       d="M 68.810547 3.5019531 C 32.629314 3.5019531 3.5019531 32.629314 3.5019531 68.810547 L 3.5019531 309.14258 C 3.5019531 345.32381 32.629314 374.45117 68.810547 374.45117 L 309.14258 374.45117 C 345.32381 374.45117 374.45117 345.32381 374.45117 309.14258 L 374.45117 68.810547 C 374.45117 32.629314 345.32381 3.5019531 309.14258 3.5019531 L 68.810547 3.5019531 z M 193.13672 79.177734 C 206.79005 79.177734 219.80245 80.725026 232.17578 83.818359 C 244.54911 86.805026 255.11076 90.058125 263.85742 93.578125 L 259.69727 135.49805 C 247.1106 129.84471 235.26911 125.57922 224.17578 122.69922 C 213.18911 119.71255 201.98951 118.21875 190.57617 118.21875 C 178.62951 118.21875 169.40315 120.19201 162.89648 124.13867 C 156.38982 128.08534 153.13672 134.0051 153.13672 141.89844 C 153.13672 148.19177 154.94951 153.25766 158.57617 157.09766 C 162.20284 160.93766 167.3757 164.24424 174.0957 167.01758 C 180.8157 169.68424 188.86919 172.51138 198.25586 175.49805 C 214.46919 180.61805 228.06997 186.27232 239.05664 192.45898 C 250.14997 198.53898 258.46896 205.95255 264.01562 214.69922 C 269.66896 223.33922 272.49609 234.05742 272.49609 246.85742 C 272.49609 253.25742 271.4837 260.24503 269.45703 267.81836 C 267.43036 275.28503 263.43036 282.37766 257.45703 289.09766 C 251.4837 295.81766 242.7368 301.36495 231.2168 305.73828 C 219.80346 310.00495 204.65734 312.13867 185.77734 312.13867 C 176.71068 312.13867 167.37734 311.2313 157.77734 309.41797 C 148.17734 307.7113 139.26997 305.63107 131.05664 303.17773 C 122.84331 300.61773 116.33711 298.16503 111.53711 295.81836 L 116.33594 252.29883 C 123.8026 255.92549 131.5906 259.28557 139.69727 262.37891 C 147.80393 265.47224 156.12292 267.97844 164.65625 269.89844 C 173.18958 271.81844 181.82951 272.7793 190.57617 272.7793 C 201.45617 272.7793 210.20307 270.64557 216.81641 266.37891 C 223.42974 262.11224 226.73633 255.60409 226.73633 246.85742 C 226.73633 240.13742 224.87005 234.75255 221.13672 230.69922 C 217.40339 226.53922 211.69562 222.8582 204.01562 219.6582 C 196.33563 216.35154 186.52284 212.61898 174.57617 208.45898 C 162.62951 204.29898 151.90935 199.60557 142.41602 194.37891 C 132.92268 189.04557 125.40409 182.32542 119.85742 174.21875 C 114.31076 166.11208 111.53711 155.7644 111.53711 143.17773 C 111.53711 130.8044 114.57625 119.81875 120.65625 110.21875 C 126.73625 100.51208 135.80409 92.938047 147.85742 87.498047 C 160.01742 81.95138 175.11005 79.177734 193.13672 79.177734 z "
       transform="scale(0.26458333)" />
  </g>
</svg>
